<?xml version="1.0" encoding="utf-8" ?>
<svg baseProfile="full" height="260px" version="1.1" width="1200px" xmlns="http://www.w3.org/2000/svg" xmlns:ev="http://www.w3.org/2001/xml-events" xmlns:xlink="http://www.w3.org/1999/xlink"><defs><linearGradient id="spectrum" x1="0%" x2="100%" y1="0%" y2="0%"><stop offset="0" stop-color="#34D4C8" /><stop offset="0.5" stop-color="#4D73FF" /><stop offset="1" stop-color="#8B5CF6" /></linearGradient></defs><g><g opacity="1.0"><path d="M16 0H252L388 387H989L1121 0H1362L825 1490H557ZM455 576 548 840C589 963 632 1094 692 1287C751 1094 793 963 834 840L924 576Z" fill="#F4F1ED" transform="translate(40.000,176.933) scale(0.080537,-0.080537)" /><path d="M766 -24C1163 -24 1452 288 1452 744C1452 1202 1163 1514 766 1514C369 1514 81 1202 81 744C81 289 369 -24 766 -24ZM766 179C509 179 304 381 304 744C304 1109 509 1311 766 1311C1023 1311 1229 1109 1229 744C1229 381 1023 179 766 179Z" fill="#F4F1ED" transform="translate(169.060,176.933) scale(0.080537,-0.080537)" /><path d="M136 0H358V806C358 872 357 1001 350 1176C449 1006 530 871 572 805L1081 0H1329V1490H1106V603C1106 549 1108 422 1112 314C1052 420 986 533 951 589L382 1490H136Z" fill="#F4F1ED" transform="translate(310.523,176.933) scale(0.080537,-0.080537)" /><path d="M358 1490H136V0H358Z" fill="#F4F1ED" transform="translate(446.430,176.933) scale(0.080537,-0.080537)" /><path d="M766 -24C859 -24 945 -7 1024 25L1144 -135H1370L1178 114C1348 248 1452 470 1452 744C1452 1202 1163 1514 766 1514C369 1514 81 1202 81 744C81 289 369 -24 766 -24ZM675 481 892 196C852 184 810 179 766 179C509 179 304 381 304 744C304 1109 509 1311 766 1311C1023 1311 1229 1109 1229 744C1229 532 1158 374 1048 280L894 481Z" fill="#F4F1ED" transform="translate(504.215,176.933) scale(0.080537,-0.080537)" /><path d="M766 -24C859 -24 945 -7 1024 25L1144 -135H1370L1178 114C1348 248 1452 470 1452 744C1452 1202 1163 1514 766 1514C369 1514 81 1202 81 744C81 289 369 -24 766 -24ZM675 481 892 196C852 184 810 179 766 179C509 179 304 381 304 744C304 1109 509 1311 766 1311C1023 1311 1229 1109 1229 744C1229 532 1158 374 1048 280L894 481Z" fill="#F4F1ED" transform="translate(633.678,176.933) scale(0.080537,-0.080537)" /></g><rect fill="url(#spectrum)" height="6.6" opacity="0.95" rx="3.3" ry="3.3" width="221.87919463087246" x="520.738255033557" y="190.93288590604027" /></g></svg>