<?xml version="1.0" encoding="utf-8" ?>
<svg baseProfile="full" height="600px" version="1.1" width="600px" xmlns="http://www.w3.org/2000/svg" xmlns:ev="http://www.w3.org/2001/xml-events" xmlns:xlink="http://www.w3.org/1999/xlink"><defs><linearGradient id="spectrum" x1="0%" x2="100%" y1="0%" y2="0%"><stop offset="0" stop-color="#34D4C8" /><stop offset="0.5" stop-color="#4D73FF" /><stop offset="1" stop-color="#8B5CF6" /></linearGradient></defs><rect fill="#F5F4F1" height="600" width="600" x="0" y="0" /><g><g opacity="1.0"><path d="M766 -24C859 -24 945 -7 1024 25L1144 -135H1370L1178 114C1348 248 1452 470 1452 744C1452 1202 1163 1514 766 1514C369 1514 81 1202 81 744C81 289 369 -24 766 -24ZM675 481 892 196C852 184 810 179 766 179C509 179 304 381 304 744C304 1109 509 1311 766 1311C1023 1311 1229 1109 1229 744C1229 532 1158 374 1048 280L894 481Z" fill="#0A0C0E" transform="translate(120.000,342.416) scale(0.100671,-0.100671)" /><path d="M766 -24C859 -24 945 -7 1024 25L1144 -135H1370L1178 114C1348 248 1452 470 1452 744C1452 1202 1163 1514 766 1514C369 1514 81 1202 81 744C81 289 369 -24 766 -24ZM675 481 892 196C852 184 810 179 766 179C509 179 304 381 304 744C304 1109 509 1311 766 1311C1023 1311 1229 1109 1229 744C1229 532 1158 374 1048 280L894 481Z" fill="#0A0C0E" transform="translate(270.329,342.416) scale(0.100671,-0.100671)" /></g><rect fill="url(#spectrum)" height="6.75" opacity="0.95" rx="3.375" ry="3.375" width="268.8489932885906" x="138.65436241610738" y="344.6661073825503" /><rect fill="none" height="188.4161073825503" opacity="0.95" rx="94.20805369127515" ry="94.20805369127515" stroke="#0A0C0E" stroke-width="3.3" width="354.3489932885906" x="95.15436241610738" y="178.0" /></g></svg>